<?xml version="1.0" standalone="no"?><!DOCTYPE svg PUBLIC "-//W3C//DTD SVG 1.1//EN" "http://www.w3.org/Graphics/SVG/1.1/DTD/svg11.dtd"><svg t="1750144694219" class="icon" viewBox="0 0 1024 1024" version="1.1" xmlns="http://www.w3.org/2000/svg" p-id="7193" xmlns:xlink="http://www.w3.org/1999/xlink" width="200" height="200"><path d="M161.8432 681.7792c-20.0192-23.296-23.2448-56.4736-8.2432-83.3536 63.8976-114.4832 208.384-262.5024 274.5856-299.776 55.7568-31.3856 182.0672-30.0544 266.5984 11.1104 16.0768 7.8336 17.92 30.0544 3.584 40.704-65.8944 48.9472-99.7888 66.6112-99.7888 66.6112s100.2496 51.0464 156.7232 141.2096c54.2208-78.2848 97.0752-127.5392 148.4288-149.4528 20.3264-8.6528 40.6528 12.288 32.0512 32.6656-26.4192 62.6688-55.5008 173.4144 9.0112 309.9648 39.168 70.144-47.36 102.9632-87.4496 65.5872-40.0896-37.376-94.7712-123.904-94.7712-123.904s-71.0656 109.3632-181.2992 150.3232a359.2192 359.2192 0 0 0 71.2192 39.8848c10.1888 4.2496 10.24 18.7904 0.0512 22.9888-64.9216 26.7264-245.504 60.7232-490.7008-224.5632z" fill="#FFC31A" p-id="7194"></path><path d="M944.7936 751.5136c-2.048-4.3008-3.9936-8.6016-5.8368-12.9024-0.4608-1.024-0.8192-1.9968-1.28-3.0208-1.3824-3.2768-2.7648-6.5536-4.0448-9.7792-0.3584-0.9728-0.7168-1.8944-1.0752-2.8672-1.28-3.2768-2.56-6.5536-3.7376-9.7792l-0.768-2.1504c-1.2288-3.4816-2.4576-6.912-3.5328-10.3424l-0.4608-1.4848c-1.1776-3.6352-2.304-7.2704-3.328-10.8544-0.1024-0.3072-0.1536-0.6144-0.256-0.9216-1.0752-3.7888-2.1504-7.5776-3.072-11.3152-0.0512-0.1536-0.0512-0.256-0.1024-0.4096-0.9728-3.8912-1.9456-7.7824-2.7648-11.6224v-0.0512c-0.8704-3.9424-1.6896-7.8336-2.4064-11.6736-17.1008-90.7776 3.9936-164.096 23.6544-210.7392 8.6016-20.3776-11.776-41.3184-32.1024-32.6144-51.3536 21.9136-94.208 71.168-148.4288 149.4528-56.4736-90.2144-156.7232-141.2096-156.7232-141.2096s33.9456-17.664 99.9424-66.7136c14.4896-10.752 12.1856-32.9216-4.0448-40.7552-3.4816-1.6896-7.0656-3.2768-10.7008-4.864-48.0768 34.2528-111.5648 79.5648-129.1264 92.8256-29.3376 22.1696-12.8512 46.4896 27.1872 67.9424 40.0384 21.4528 112.9984 77.2096 132.3008 127.2832-0.3584 16.0256 3.5328 50.2272 9.1136 84.1216-28.9792 37.9904-90.3168 108.4928-165.3248 137.216-98.304 37.632 55.3472 92.16 75.5712 99.0208 7.0656-2.1504 13.3632-4.4544 18.8416-6.7072 10.3424-4.2496 10.496-18.7904 0.1536-23.04-18.1248-7.5264-43.776-20.1216-71.2192-39.8848 68.5056-25.4464 121.856-77.312 152.4224-112.896 0.8192-0.9728 1.5872-1.8944 2.4064-2.816 0.512-0.5632 0.9728-1.1776 1.4848-1.7408l2.304-2.7648c0.4096-0.512 0.8192-0.9728 1.2288-1.4848 2.6112-3.1744 4.9664-6.144 7.1168-8.9088 0.2048-0.3072 0.4608-0.5632 0.6656-0.8704 0.6656-0.8704 1.28-1.6896 1.8944-2.5088 0.2048-0.3072 0.4608-0.5632 0.6656-0.8704 1.9456-2.56 3.6352-4.864 5.12-6.8608 0.1536-0.2048 0.3072-0.4096 0.4096-0.5632 0.4096-0.5632 0.8192-1.1264 1.1776-1.6384 0.1536-0.2048 0.3072-0.4608 0.4608-0.6656 0.3584-0.512 0.7168-0.9728 0.9728-1.4336 0.0512-0.1024 0.1024-0.1536 0.1536-0.2048 0.5632-0.768 1.024-1.4336 1.3824-1.9968 0.1536-0.2048 0.3072-0.4608 0.4096-0.6144 0.1536-0.2048 0.256-0.3584 0.3584-0.512 0.1536-0.2048 0.256-0.3584 0.3072-0.4608 0.0512-0.1024 0.1024-0.1536 0.1536-0.2048 0.1024-0.1536 0.1536-0.256 0.1536-0.256s54.6816 86.5792 94.7712 123.904c40.192 37.1712 126.72 4.352 87.552-65.792z" fill="#F48806" p-id="7195"></path><path d="M762.2144 693.7088c0.2048-0.3072 0.3584-0.512 0.3584-0.512s54.6816 86.5792 94.7712 123.904c40.0896 37.376 126.6688 4.5568 87.4496-65.5872-64.512-136.5504-35.4816-247.2448-9.0112-309.9648 8.6016-20.3264-11.6736-41.3184-32-32.6656-51.3536 21.8624-94.2592 71.168-148.48 149.4528 0 0-19.4048 44.9536 6.912 135.3728z" fill="#FFE8D2" p-id="7196"></path><path d="M944.7936 751.5136c-64.512-136.5504-35.4816-247.2448-9.0112-309.9648 8.6016-20.3264-11.6736-41.3184-32-32.6656-4.5568 1.9456-9.0112 4.1472-13.4144 6.5024-29.44 68.8128-67.6864 206.6432 10.3424 352.6144 7.1168 11.2128 18.2272 48.1792-3.6352 64.6656 38.2464 1.0752 76.1856-30.1568 47.7184-81.152z" fill="#E8AD80" p-id="7197"></path><path d="M392.1408 610.816c-10.7008 0-19.712-8.3456-20.4288-19.1488-5.5808-86.9376-41.1136-153.1392-41.472-153.8048a20.54144 20.54144 0 0 1 8.192-27.8016 20.41856 20.41856 0 0 1 27.7504 8.1408c1.6384 2.9696 40.2432 74.4448 46.3872 170.8032a20.47488 20.47488 0 0 1-19.1488 21.76c-0.4096 0.0512-0.8704 0.0512-1.28 0.0512z" fill="#FFFFFF" p-id="7198"></path><path d="M125.3376 645.7856c-14.4896-16.896-16.7936-40.4992-5.8368-60.1088 23.296-41.6768 59.0336-90.624 103.3728-141.4656 7.424-8.5504 6.5536-21.4528-1.9968-28.8768s-21.4528-6.5536-28.8768 1.9968c-32.2048 36.9152-77.1072 92.6208-108.288 148.3776-19.1488 34.2528-14.8992 77.1584 10.5472 106.8032 28.0576 32.6656 56.5248 62.5664 84.6336 88.9344 3.9424 3.6864 8.96 5.5296 14.0288 5.5296 5.4784 0 10.9056-2.1504 14.9504-6.4512a20.46976 20.46976 0 0 0-0.9216-28.928c-27.0336-25.3952-54.4768-54.2208-81.6128-85.8112zM271.4112 786.2272c-2.7648-2.0992-5.4784-4.1984-8.2432-6.3488a20.44928 20.44928 0 0 0-28.7232 3.5328 20.44928 20.44928 0 0 0 3.5328 28.7232c2.9184 2.304 5.8368 4.5056 8.7552 6.7072 3.6864 2.816 8.0384 4.1472 12.3392 4.1472 6.1952 0 12.3392-2.816 16.3328-8.1408 6.8096-8.96 5.0176-21.8112-3.9936-28.6208zM911.0016 719.5136c-18.688-39.68-30.1568-79.4624-34.6112-119.1424v-0.6144c-0.0512-0.3072-0.1536-0.6144-0.2048-0.9216-6.2464-57.7536 2.4576-115.2512 26.368-171.9808 7.2192-17.152 3.3792-36.7616-9.8304-49.9712-13.0048-12.9536-32.256-16.6912-49.0496-9.5232-38.5024 16.384-73.8816 46.848-114.8416 98.7136a20.5056 20.5056 0 0 0 3.3792 28.7744 20.50048 20.50048 0 0 0 28.7744-3.3792c36.4544-46.2336 66.9184-72.8576 98.7648-86.4256 0.6656-0.256 2.2528-0.9728 4.096 0.8704 1.024 1.024 1.9968 2.7136 1.024 5.0176-13.0048 30.8224-21.8624 61.9008-26.9312 93.0304-21.7088 4.096-63.1296 15.8208-100.352 48.4864a20.43904 20.43904 0 0 0-1.8944 28.8768c4.0448 4.608 9.728 6.9632 15.4112 6.9632 4.8128 0 9.6256-1.6896 13.4656-5.0688 24.1152-21.0944 50.688-31.3344 68.9664-36.1984-0.512 11.9808-0.4608 23.9616 0.2048 35.9936l-56.7808 5.12a20.46976 20.46976 0 1 0 1.8432 40.8576c0.6144 0 1.2288 0 1.8432-0.1024l57.5488-5.1712a410.2144 410.2144 0 0 0 12.0832 52.1728c-54.272-15.4112-85.1456-41.0624-85.8112-41.6768a20.47488 20.47488 0 0 0-26.8288 30.9248c1.9968 1.7408 48.3328 41.1648 129.6896 56.7808 2.2528 5.2224 4.5056 10.3936 6.9632 15.616 0.2048 0.4096 0.4096 0.8192 0.6656 1.2288 7.2704 13.0048 12.8 30.9248-2.048 42.5472-13.2096 10.3936-38.5024 12.1344-53.5552-1.8944-37.6832-35.1232-90.88-119.04-91.392-119.8592a20.51072 20.51072 0 0 0-17.2032-9.5232c-7.0656-0.1536-13.5168 3.4816-17.3056 9.3184-0.6656 1.024-68.5568 104.0896-171.3152 142.2848a20.5056 20.5056 0 0 0-4.8128 35.84 386.2528 386.2528 0 0 0 56.6784 33.792c-48.3328 13.9776-137.7792 20.1728-258.9696-55.1424a20.45952 20.45952 0 0 0-28.2112 6.6048 20.45952 20.45952 0 0 0 6.6048 28.2112c87.0912 54.1184 160.3584 70.2464 216.7296 70.2464 79.7184 0 125.5424-32.2048 128.7168-34.5088a20.53632 20.53632 0 0 0 8.0896-20.3264 20.41856 20.41856 0 0 0-14.8992-16.0256c-0.3072-0.1024-25.9584-7.0144-59.8016-26.2144 65.0752-34.0992 113.0496-86.8352 137.472-117.6576 19.712 29.2352 53.6576 76.8512 81.7664 103.0144 28.2624 26.3168 76.1344 28.2112 106.752 4.1472 21.76-17.152 36.5568-50.8416 12.7488-94.1056z" fill="#293E40" p-id="7199"></path><path d="M234.0864 400.9472a20.52096 20.52096 0 0 0 28.9792-0.6144C311.296 349.952 357.376 310.1184 386.2016 293.888c47.872-26.9824 166.3488-27.8016 247.3472 11.5712 1.1776 0.5632 1.8432 1.536 1.9456 2.816a3.3792 3.3792 0 0 1-1.3824 3.1232c-63.3856 47.104-96.768 64.768-97.0752 64.9216-6.8096 3.5328-11.0592 10.5984-11.008 18.2784s4.352 14.6944 11.2128 18.176c0.9728 0.4608 95.7952 49.408 148.6336 133.8368a20.49024 20.49024 0 0 0 17.3568 9.6256 20.48512 20.48512 0 0 0 17.3568-31.3344c-39.5264-63.0784-98.3552-107.4688-133.9904-130.5088 16.9984-10.8544 41.0624-27.0848 71.936-50.0736 12.5952-9.3184 19.2-24.2176 17.7664-39.8336-1.4848-15.616-10.752-29.0304-24.8832-35.84-86.8864-42.1888-220.2624-47.104-285.3376-10.4448-32.6656 18.3808-80.9984 59.8528-132.6592 113.8176a20.46464 20.46464 0 0 0 0.6656 28.928zM331.9296 564.8896c0-34.4064-28.0064-62.4128-62.4128-62.4128s-62.4128 28.0064-62.4128 62.4128 28.0064 62.4128 62.4128 62.4128c34.4576-0.0512 62.4128-28.0064 62.4128-62.4128z m-83.8144 0c0-11.8272 9.6256-21.4528 21.4528-21.4528 11.8272 0 21.4528 9.6256 21.4528 21.4528s-9.6256 21.4528-21.4528 21.4528c-11.8272-0.0512-21.4528-9.6768-21.4528-21.4528zM358.0416 710.1952c-3.8912 12.1856-8.6016 24.2176-14.0288 35.7888-4.8128 10.24-0.3584 22.4256 9.8816 27.2384 2.816 1.3312 5.7856 1.9456 8.6528 1.9456 7.68 0 15.104-4.352 18.5856-11.776 6.1952-13.2096 11.52-26.88 15.9232-40.7552 3.4304-10.8032-2.56-22.272-13.312-25.7024-10.752-3.4816-22.272 2.5088-25.7024 13.2608zM410.4704 661.504c0.3584-2.8672 0.7168-5.7856 0.9728-8.6528 1.1264-11.264-7.0656-21.2992-18.3296-22.4256a20.46976 20.46976 0 0 0-22.4256 18.3296c-0.256 2.56-0.5632 5.0688-0.8704 7.6288a20.46464 20.46464 0 0 0 20.3776 23.04c10.1376 0 18.944-7.5264 20.2752-17.92zM201.5232 340.5824c1.8944 0.5632 3.7888 0.8192 5.632 0.8192 8.9088 0 17.1008-5.888 19.6608-14.848 3.1232-10.8544-3.1744-22.2208-14.08-25.2928-28.7232-8.192-31.7952-16.4352-31.7952-16.5376-0.3072-1.9968 4.1984-9.2672 11.52-14.336 17.7664-12.288 50.7904-35.1232 57.856-73.3696 8.96-48.896-37.7856-73.3184-63.744-79.4112-10.9568-2.56-21.9136 4.1984-24.5248 15.2064a20.5312 20.5312 0 0 0 15.104 24.6784c1.536 0.3584 37.0688 9.3184 32.8704 32.1536-3.6352 19.968-22.9888 34.7648-40.8576 47.104-5.632 3.8912-33.536 24.8832-28.672 54.6816 5.5808 33.3312 47.3088 45.2608 61.0304 49.152zM436.8896 158.0032c5.4272-0.1536 18.0736 1.8432 22.3744 6.912 0.6144 0.7168 2.3552 2.7648 1.4336 9.1648-1.4848 2.6112-5.9392 7.8336-8.3968 10.752-3.5328 4.1984-6.6048 7.8336-8.8064 11.4688-5.8368 9.5744-2.7136 21.9136 6.8096 27.8528 3.328 2.048 7.0144 3.072 10.7008 3.072 6.8608 0 13.568-3.4304 17.5104-9.5744 0.7168-1.0752 3.3792-4.2496 5.12-6.3488 7.4752-8.8576 15.2064-18.0736 17.152-28.5184 4.0448-21.9136-3.3792-36.2496-10.3424-44.3904-18.2784-21.4528-50.7904-21.4016-54.4256-21.2992a20.46464 20.46464 0 0 0-20.0192 20.8896c0.256 11.264 9.728 20.2752 20.8896 20.0192zM293.6832 232.0896a20.47488 20.47488 0 1 0 26.0096 31.6416c17.408-14.336 49.8688-41.0624 56.576-84.4288 8.3968-54.3744-37.5296-82.176-62.976-89.2928-10.8544-3.072-22.016 3.2768-25.1392 14.1312-3.1232 10.8032 3.1744 22.1184 13.9776 25.2928 3.9424 1.1776 38.5024 12.2368 33.6384 43.6224-3.9424 25.8048-22.9376 43.3152-42.0864 59.0336z" fill="#293E40" p-id="7200"></path></svg>