<?xml version="1.0" standalone="no"?><!DOCTYPE svg PUBLIC "-//W3C//DTD SVG 1.1//EN" "http://www.w3.org/Graphics/SVG/1.1/DTD/svg11.dtd"><svg t="1750144730357" class="icon" viewBox="0 0 1024 1024" version="1.1" xmlns="http://www.w3.org/2000/svg" p-id="1464" xmlns:xlink="http://www.w3.org/1999/xlink" width="200" height="200"><path d="M229 433h556v79l-29.9 278.1-22.3 130.5-48.9 28.5L289 940l-28.4-61.1-24-334.5z" fill="#FFDC02" p-id="1465"></path><path d="M191.9 255.9l59.9-10.1 170.9 5.2 250.3-5.2 123.1 5.2H831l19 23.2 9 21.6V392l-10.4 18.6-25.5 22.6-60 4.8H264l-52.9-5-29.2-14-18.9-40v-81z" fill="#31C0FF" p-id="1466"></path><path d="M806.6 234H521.2c0.3-1 0.5-1.3 0.6-1.6L552 100h205.7c6.8 0 12.2-5 12.2-11.7V76.1c0-6.8-5.5-12.1-12.2-12.1H532.8c-3.9 0-7.4 1.8-9.6 4.6-1.1 0.8-1.9 1.9-2.2 3.2l-42.9 161c-0.1 0.4-0.1 0.2-0.2 1.2H219.6c-37.2 0-67.6 30.1-67.6 67.3v80c0 34.5 26 63 59.5 67h1l31.4 427c1.4 62.5 41.4 80.6 76.3 84.6h359.4c51.8 1 80.1-45.2 83.1-86.9l43-424.2c36.7-0.6 66.4-30.7 66.4-67.6v-80c-0.1-36.4-29.2-66.2-65.5-67.2z m-73.8 636.6v0.4c-1.1 15.7-7 31-16 42-9.3 11.3-21.1 17-35.2 17H322c-32.9-5-47.3-21-48.1-55.3v-0.7l-31.3-425h532.9l-42.7 421.6zM842 381.3c0 20.4-16.3 37.2-36.7 37.5l-3.3 0.1v0.1H240.4v-0.2l-26.7-0.4c-18.1-2.8-31.7-18.6-31.7-37.1v-80c0-20.7 16.9-37.3 37.6-37.3h586.5c19.9 0 35.9 17.4 35.9 37.3v80z" fill="" p-id="1467"></path><path d="M668.3 822.6L488.1 642.4c-5.6-5.6-14-6.3-18.8-1.5l-4.2 4.2-4.5 4.5c-4.8 4.8-4.1 13.2 1.5 18.8l180.2 180.2c0.9 0.9 2 1.7 3 2.4 5.3 3.3 11.8 3.1 15.7-0.9l2.4-2.4 6.3-6.3c4.5-4.5 4.2-12.1-0.5-17.7-0.2-0.4-0.5-0.8-0.9-1.1zM571.7 594c-1-1-2.3-1.6-3.8-1.9-1.6-0.3-3.4-0.1-5.2 0.6-2 0.7-4.1 2-5.8 3.8l-3.1 3.1-5.5 5.5c-3.7 3.7-5.2 8.6-4 12.2 0.2 0.7 0.6 1.4 1 2 0.2 0.2 0.3 0.4 0.5 0.6v0.1l110.4 110.4c3.4 3.4 10.1 2.3 14.8-2.5l8.6-8.6c0.4-0.4 0.8-0.9 1.2-1.3 3.7-4.6 4.4-10.4 1.2-13.5L571.7 594z" fill="" p-id="1468"></path></svg>