<?xml version="1.0" standalone="no"?><!DOCTYPE svg PUBLIC "-//W3C//DTD SVG 1.1//EN" "http://www.w3.org/Graphics/SVG/1.1/DTD/svg11.dtd"><svg t="1750144665633" class="icon" viewBox="0 0 1024 1024" version="1.1" xmlns="http://www.w3.org/2000/svg" p-id="1003" xmlns:xlink="http://www.w3.org/1999/xlink" width="200" height="200"><path d="M600.2 412.9c-27.8-31.9-56.4-72.5-56.4-114.8V185.7c0-7.4 2.3-14.5 6.7-20.5 0.6-0.9 0-2.1-1-2.1H428.8c-1 0-1.7 1.2-1.1 2l1.6 2.3c3.1 4.5 4.7 9.8 4.7 15.2V301c0 38-28 74.4-54.8 101.4-26.3 26.4-42.6 62.8-42.6 102.8v345.4c0 51.3 42 93.3 93.3 93.3h115.5c51.3 0 93.3-42 93.3-93.3V515.3c0-39.1-14.5-75-38.5-102.4z" fill="#FFC050" p-id="1004"></path><path d="M570.6 374.5c-8.7 5-17.5 9.9-26.6 14.2-25.1 11.9-52.3 18.7-80.3 18.2-26.1-0.5-52.1-4.6-78.2-1.9-3.4 0.3-6.8 0.8-10.2 1.5-24 26.1-38.8 60.8-38.8 98.8v345.4c0 51.3 42 93.3 93.3 93.3h115.5c51.3 0 93.3-42 93.3-93.3V515.3c0-39.1-14.6-74.9-38.5-102.4-10.1-11.8-20.5-24.7-29.5-38.4z" fill="#FFCD7D" p-id="1005"></path><path d="M427.1 868.1c35.7 0.2 71.6 0.2 107.3-2.4 18.7-1.3 37.3-3.2 55.9-5.3 16.2-1.9 32.4-4.1 48.4-7.4V515.3c0-17.8-3-35-8.6-51-16.1 5.3-32.3 10-48.8 13.9-26.6 6.2-53.7 10.1-81 11.3-14.7 0.6-29.4 0.4-44-0.5-15.4-1-30.6-3.1-45.7-5.7-23.3-4-46.5-8.9-69.9-12-2.6 10.9-4 22.3-4 34v345.4c0 2.4 0.1 4.8 0.3 7.1 29 8.5 59.9 10.1 90.1 10.3z" fill="#F79534" p-id="1006"></path><path d="M551.9 111.5H426.2V69.8c0-6.6 5.4-12 12-12h101.7c6.6 0 12 5.4 12 12v41.7z" fill="#FFC050" p-id="1007"></path><path d="M547.9 165.1H430.3c-2.2 0-4.1-1.8-4.1-4.1v-49.6h125.7V161c0 2.3-1.8 4.1-4 4.1z" fill="#F79534" p-id="1008"></path><path d="M489.1 616.4m-62.9 0a62.9 62.9 0 1 0 125.8 0 62.9 62.9 0 1 0-125.8 0Z" fill="#FFC050" p-id="1009"></path><path d="M638.7 648.7c-9.7 0-17.5 7.8-17.5 17.5v13c0 9.7 7.8 17.5 17.5 17.5s17.5-7.8 17.5-17.5v-13c0-9.6-7.8-17.5-17.5-17.5z" fill="#5E2E17" p-id="1010"></path><path d="M646.8 459.2c0-0.1-0.1-0.3-0.1-0.4-0.1-0.2-0.1-0.4-0.2-0.5-7.2-20.7-18.4-40.1-33.1-56.9-22.4-25.6-52.1-64.2-52.1-103.3V185.7c0-3.7 1.1-7.2 3.3-10.2 1.1-1.5 1.9-3.1 2.5-4.7 1.5-2.9 2.4-6.2 2.4-9.7V69.8c0-16.3-13.2-29.5-29.5-29.5H438.2c-16.3 0-29.5 13.2-29.5 29.5V161c0 3.3 0.8 6.5 2.1 9.3 0.6 1.7 1.4 3.3 2.4 4.8l1.6 2.3c1.1 1.5 1.6 3.3 1.6 5.2V301c0 25.9-16.7 55.9-49.7 89.1-27.3 27.5-43.7 62.8-47.1 100.7v0.2c-0.1 1.4-0.2 2.8-0.3 4.1 0 0.3 0 0.6-0.1 0.9-0.1 1.2-0.1 2.4-0.2 3.6v1.1c0 1.4-0.1 2.9-0.1 4.3v345.7c0 1.2 0 2.5 0.1 3.7v0.9c2.5 58.9 51.2 106.1 110.7 106.1h115.5c60.1 0 109.2-48.1 110.8-107.9V727.2c0-9.7-7.8-17.5-17.5-17.5s-17.5 7.8-17.5 17.5v111.4c-9.7 1.6-20.3 3.1-32.9 4.5-20.5 2.3-38.5 4-55.2 5.2-36.1 2.5-73.6 2.5-106 2.3-23.8-0.2-48.9-1.1-73.1-6.5V505.2v-0.3-3.1-0.8c0-0.9 0.1-1.8 0.1-2.7v-0.7c0.1-1 0.1-2 0.2-2.9v-0.3l0.3-3.3c9.6 1.6 19.2 3.3 28.6 5.1 7.9 1.5 16 3 24.1 4.3 18.6 3.2 33.7 5 47.6 5.9 15.4 1 30.8 1.2 45.9 0.5 27.5-1.1 55.9-5.1 84.2-11.7 10.7-2.5 21.6-5.4 32.8-8.8 2 9.4 3.1 19.1 3.1 28.9v101.1c0 9.7 7.8 17.5 17.5 17.5s17.5-7.8 17.5-17.5V515.3c0.5-19.2-2.7-38.2-8.9-56.1zM427 885.6c7.5 0 15.2 0.1 23.1 0.1 27.1 0 56.6-0.5 85.5-2.5 17.1-1.2 35.7-3 56.7-5.3 9.2-1 17.4-2.1 25-3.3-10.1 30.1-38.5 51.8-71.9 51.8H429.9c-31 0-57.8-18.8-69.5-45.5 23.1 3.8 46.1 4.6 66.6 4.7z m16.7-810.3h90.7V94h-90.7V75.3z m0 53.7h90.7v16.7h-90.7V129z m133.6 332.1c-26.2 6.1-52.3 9.8-77.7 10.8-13.8 0.6-28.1 0.4-42.2-0.5-12.8-0.8-26.4-2.5-43.9-5.5-7.9-1.3-15.9-2.8-23.6-4.2-8.6-1.6-17.4-3.2-26.3-4.7 6.4-15.6 15.8-29.9 28.1-42.3 39.7-39.9 59.9-78.2 59.9-113.7V182.7v-0.1h74.9c-0.1 1-0.1 2.1-0.1 3.1v112.4c0 50.8 34.7 96.4 60.8 126.3 7.7 8.9 14.3 18.6 19.5 29-10.2 2.9-19.9 5.5-29.4 7.7z" fill="#5E2E17" p-id="1011"></path><path d="M489.1 696.8c44.3 0 80.4-36 80.4-80.4s-36-80.4-80.4-80.4c-44.3 0-80.4 36-80.4 80.4s36.1 80.4 80.4 80.4z m0-125.8c25 0 45.4 20.3 45.4 45.4s-20.3 45.4-45.4 45.4-45.4-20.3-45.4-45.4 20.4-45.4 45.4-45.4zM410.9 727.2h159.4v35.6H410.9z" fill="#5E2E17" p-id="1012"></path><path d="M483.6 320c11.1 24.3 19.8 49.7 26.3 75.6 3.4 13.7 24.6 7.9 21.2-5.8-6.9-27.8-16.6-54.8-28.5-80.8-2.5-5.4-10.3-6.7-15.1-3.9-5.5 3.1-6.3 9.5-3.9 14.9z" fill="#FFFFFF" p-id="1013"></path><path d="M539.9 424.7H536c-2.8 0-5.8 1.2-7.8 3.2-1.1 1-1.8 2.2-2.3 3.5-0.7 1.3-1 2.7-0.9 4.2 0.1 2.8 1.1 5.8 3.2 7.8 2.2 2 4.8 3.2 7.8 3.2h3.9c2.8 0 5.8-1.2 7.8-3.2 1.1-1 1.8-2.2 2.3-3.5 0.7-1.3 1-2.7 0.9-4.2-0.1-2.8-1.1-5.8-3.2-7.8-2.2-1.9-4.8-3.2-7.8-3.2z" fill="#FFFFFF" p-id="1014"></path></svg>