<?xml version="1.0" standalone="no"?><!DOCTYPE svg PUBLIC "-//W3C//DTD SVG 1.1//EN" "http://www.w3.org/Graphics/SVG/1.1/DTD/svg11.dtd"><svg t="1750144813945" class="icon" viewBox="0 0 1024 1024" version="1.1" xmlns="http://www.w3.org/2000/svg" p-id="8584" xmlns:xlink="http://www.w3.org/1999/xlink" width="200" height="200"><path d="M561.344 192.128c113.642667 0 299.562667 62.165333 290.154667 277.738667-10.56 242.965333-157.525333 292.928-317.482667 292.928-159.978667 0-215.552 140.074667-331.626667 35.477333-70.336-63.402667 8.768-181.482667 0.064-273.429333C174.101333 225.024 447.701333 192.128 561.344 192.128z" fill="#FFECB1" p-id="8585"></path><path d="M537.813333 237.589333c84.864 0 223.658667 46.421333 216.661334 207.381334-7.893333 181.418667-117.632 218.752-237.077334 218.752-119.466667 0-160.96 104.597333-247.616 26.496-52.522667-47.36 6.549333-135.530667 0.042667-204.202667-21.162667-223.829333 183.146667-248.426667 267.989333-248.426667z" fill="#FFFFFF" p-id="8586"></path><path d="M286.613333 856.234667c-30.101333 0-62.208-11.648-98.730666-44.544-53.568-48.256-36.352-120.682667-21.184-184.554667 8.426667-35.456 17.109333-72.085333 14.208-102.954667-7.082667-74.730667 3.498667-139.413333 31.424-192.256a21.653333 21.653333 0 1 1 38.293333 20.245334c-23.893333 45.269333-32.853333 101.781333-26.581333 167.957333 3.584 37.973333-5.952 78.165333-15.189334 117.013333-14.165333 59.733333-26.432 111.296 8.064 142.378667 57.472 51.797333 92.992 34.346667 151.808 5.418667 42.112-20.714667 94.549333-46.485333 165.333334-46.485334 132.224 0 285.354667-30.933333 295.850666-272.213333 3.114667-71.68-16.533333-130.24-58.432-173.994667-57.28-59.797333-146.069333-81.109333-210.090666-81.109333-63.466667 0-181.717333 10.197333-260.8 78.570667a21.696 21.696 0 0 1-30.570667-2.218667 21.696 21.696 0 0 1 2.218667-30.570667c89.706667-77.525333 219.648-89.109333 289.130666-89.109333 72.96 0 174.698667 24.832 241.365334 94.485333 50.389333 52.629333 74.112 121.898667 70.442666 205.845334-5.12 117.76-42.645333 203.221333-111.509333 254.058666-54.314667 40.106667-128.768 59.605333-227.626667 59.605334-60.714667 0-106.133333 22.336-146.218666 42.026666-33.472 16.426667-65.941333 32.405333-101.205334 32.405334z" fill="#231815" p-id="8587"></path><path d="M427.69939 491.863038a123.52 143.594667 70.979 1 0 271.508561-93.599221 123.52 143.594667 70.979 1 0-271.508561 93.599221Z" fill="#F19000" p-id="8588"></path><path d="M549.44 585.386667a161.365333 161.365333 0 0 1-59.712-11.221334c-37.205333-14.805333-64.405333-42.368-76.544-77.589333a124.586667 124.586667 0 0 1-4.736-18.090667 14.442667 14.442667 0 0 1 28.416-5.141333c0.853333 4.693333 2.069333 9.344 3.605333 13.824 9.344 27.136 30.634667 48.512 59.904 60.16 30.016 11.968 64.746667 12.245333 97.749334 0.874667 33.002667-11.370667 60.138667-33.002667 76.416-60.906667 15.893333-27.221333 19.477333-57.152 10.133333-84.288-9.365333-27.178667-30.634667-48.512-59.904-60.16-30.016-11.946667-64.768-12.245333-97.749333-0.874667a149.333333 149.333333 0 0 0-43.626667 23.637334 14.442667 14.442667 0 0 1-17.834667-22.72 177.344 177.344 0 0 1 52.074667-28.224c39.530667-13.632 81.386667-13.162667 117.845333 1.344 37.205333 14.805333 64.384 42.346667 76.544 77.589333 12.138667 35.221333 7.701333 73.685333-12.48 108.266667-19.776 33.856-52.437333 60.032-91.968 73.664a179.114667 179.114667 0 0 1-58.133333 9.856z m-126.165333-136.810667a14.421333 14.421333 0 0 1-14.165334-17.322667 141.354667 141.354667 0 0 1 19.328-47.488 14.464 14.464 0 0 1 24.426667 15.424 113.152 113.152 0 0 0-15.424 37.802667 14.506667 14.506667 0 0 1-14.165333 11.584z" fill="#231815" p-id="8589"></path><path d="M466.039896 437.135308a54.421333 63.274667 70.979 1 0 119.639636-41.244286 54.421333 63.274667 70.979 1 0-119.639636 41.244286Z" fill="#FFC627" p-id="8590"></path></svg>