<?xml version="1.0" standalone="no"?><!DOCTYPE svg PUBLIC "-//W3C//DTD SVG 1.1//EN" "http://www.w3.org/Graphics/SVG/1.1/DTD/svg11.dtd"><svg t="1750144687206" class="icon" viewBox="0 0 1024 1024" version="1.1" xmlns="http://www.w3.org/2000/svg" p-id="1159" xmlns:xlink="http://www.w3.org/1999/xlink" width="200" height="200"><path d="M149 396v536l20 17h425V388H160zM298 210h434l-18.5 30.9-84 88.8L595 381H160l9-21.3 73.5-84z" fill="#FFDC02" p-id="1160"></path><path d="M295 79.2h444V210H295z" fill="#31C0FF" p-id="1161"></path><path d="M747.5 226.9L870 381v551l-15 17H594l1-568z" fill="#FFDC02" p-id="1162"></path><path d="M878.6 370.6L754 217.1v1.8l0.6 0.6-0.6 0.7v6.9h-7l-12.4 13.4L836.9 366H863v30h-8v532.6c0 0.4-0.7 1.4-2.8 1.4H609v29h-30v-29H172.5c-2 0-3.5-0.9-3.5-1.4V396h-20v-30h32.3L309 227.7v-0.7h-30v-30h30V95.3c0-0.3 1.1-1.3 3.2-1.3h408.3c2.1 0 2.5 1 3.5 1.3V197h30V95.1c0-17.2-15.1-31.1-33.5-31.1H312.2C293.7 64 279 77.9 279 95.1V216L147.3 359.3c-0.4 0.4-0.8 0.9-1.2 1.4-4.2 2.2-7.1 6.6-7.1 11.6v556.5c0 0.9 0.1 1.8 0.2 2.7 1.4 16 15.9 28.5 33.4 28.5h679.6c18.4 0 32.8-13.9 32.8-31.2V389.4c0-6.8-2-13.4-6.4-18.8z" fill="" p-id="1163"></path><path d="M308.8 197H279v30h427.1L577.4 366H149v30h430v563h30V375.8l8.9-9.2 116.6-126L747 227h7v-6.9l0.6-0.7-0.6-0.5V197h-30.1zM855 396h8v-30h-26.1l18.1 23.5z" fill="" p-id="1164"></path><path d="M487.3 794.6L307.1 614.4c-5.6-5.6-14-6.3-18.8-1.5l-4.2 4.2-4.5 4.5c-4.8 4.8-4.1 13.2 1.5 18.8l180.2 180.2c0.9 0.9 2 1.7 3 2.4 5.3 3.3 11.8 3.1 15.7-0.9l2.4-2.4 6.3-6.3c4.5-4.5 4.2-12.1-0.5-17.7-0.2-0.4-0.5-0.8-0.9-1.1zM390.7 566c-1-1-2.3-1.6-3.8-1.9-1.6-0.3-3.4-0.1-5.2 0.6-2 0.7-4.1 2-5.8 3.8l-3.1 3.1-5.5 5.5c-3.7 3.7-5.2 8.6-4 12.2 0.2 0.7 0.6 1.4 1 2 0.2 0.2 0.3 0.4 0.5 0.6v0.1l110.4 110.4c3.4 3.4 10.1 2.3 14.8-2.5l8.6-8.6c0.4-0.4 0.8-0.9 1.2-1.3 3.7-4.6 4.4-10.4 1.2-13.5L390.7 566z" fill="" p-id="1165"></path></svg>