<?xml version="1.0" standalone="no"?><!DOCTYPE svg PUBLIC "-//W3C//DTD SVG 1.1//EN" "http://www.w3.org/Graphics/SVG/1.1/DTD/svg11.dtd"><svg t="1750144887898" class="icon" viewBox="0 0 1024 1024" version="1.1" xmlns="http://www.w3.org/2000/svg" p-id="3351" xmlns:xlink="http://www.w3.org/1999/xlink" width="200" height="200"><path d="M578.592607 19.747032c22.28313-17.631905 48.89847-29.980938 70.320262-7.857315 15.749723 16.263335 23.221031 42.30764 6.058076 60.2777 23.814397-24.934136 61.917433-35.155346 95.011948-25.48284a220.14839 220.14839 0 0 1-32.003487 69.095248c17.584053-15.618927 63.037172-41.497345 88.00959-30.788044 25.256341 10.833716 14.004716 48.761294-4.255647 60.574383a98.419018 98.419018 0 0 1 58.204109-15.526412c6.657823 0.347725 13.625089 1.528077 18.821827 5.707161 14.3333 11.519597 5.764583 34.463085-4.175893 49.935265a1112.063758 1112.063758 0 0 1-85.95195 116.398649c-32.316121 38.272113-70.317072 76.161409-119.285725 86.698442-28.739974 6.182492-58.580546 2.26819-87.690576-1.837521-32.229987-4.54595-96.680391-15.124455-114.577078-46.971625-33.43905-59.518447-10.856047-175.748018 2.759472-237.579317 6.176112-28.025382 18.844159-79.753507 48.00204-93.774173 29.483276-14.173793 51.999286 29.192974 40.122395 55.747701l20.630637-44.617302z" fill="#7DB728" p-id="3352"></path><path d="M446.820673 448.042505c-28.229551-18.990905-42.623464-53.782575-49.472696-85.827534-10.498752-49.144111-10.374336-84.589759 2.539352-131.944202 3.844119-14.09404 19.574701-77.944697 44.955457-55.393596 8.906872 7.917928 4.30988 19.089799 4.453436 29.291868 0.44662 30.650868 5.321154 74.805599-4.7565 104.004953 24.707636-71.573987 59.199433-149.617579 129.535646-177.655721 9.206745-3.665471 21.769517-5.375386 27.205516 2.915788 3.885591 5.91771 1.767338 13.768645-0.571035 20.455179a719.383012 719.383012 0 0 1-83.125485 165.485337c49.475885-73.427459 119.001803-143.221348 207.091146-152.15055 6.718435 9.238646-0.079754 21.964116-6.874752 31.145339a1581.837435 1581.837435 0 0 1-123.49671 147.282396c27.179995-28.985615 54.659863-58.22963 87.57573-80.490429 32.909487-22.260799 72.205635-37.257648 111.833558-34.319529 7.235238 0.535944 15.625307 2.526591 18.502813 9.190794 3.627189 8.399639-4.051478 17.089581-11.005983 23.042383l-135.973349 116.312515c56.079476-45.520112 123.107513-83.951731 195.329098-83.084013 12.28523 0.146746 25.897559 2.111873 33.742114 11.564258 7.898787 9.525759 7.104442 24.11427 1.001704 34.880994s-16.480265 18.387969-27.052389 24.806531c-55.553103 33.735733-115.910557 47.698977-165.140802 91.550645-68.122255 60.689229-179.384778 31.410121-249.848596-7.129963a84.889633 84.889633 0 0 1-6.447273-3.933443" fill="#B6CE40" p-id="3353"></path><path d="M288.500391 954.483653c0.165887 1.505746 0.140366-1.662063 0.086134-2.05126a6.424943 6.424943 0 0 0-1.036796-2.753091l0.89643 3.263514c0.210549-2.593584-0.717782-5.330724-2.769042-7.008739l-0.00957 11.765238c1.891753-1.607831 3.40707-3.387929 4.989379-5.292443 1.502556-1.799239 2.536162-3.722894 2.50426-6.14102-0.025521-2.04807-0.953852-4.520429-2.491499-5.927281-3.340077-3.052964-8.779266-3.470873-12.068301-0.00957-2.220338 2.338373-4.249267 4.676746-6.045316 7.369224-2.306471 3.458112-0.813486 9.646984 3.116767 11.347329 1.518507 0.653979 2.992352 1.400472 4.708647 1.307957a9.595942 9.595942 0 0 0 4.734168-1.556788l-4.982999 0.698641c2.628676 0.312634 5.072323 0.23288 6.954506-1.930035l-2.076781 1.205873 0.373246-0.146747c1.630162-0.634838 3.330506-2.172486 3.116767-4.140802" fill="#7DBB5C" p-id="3354"></path><path d="M300.51765 906.899521a911.308231 911.308231 0 0 0-28.347587 21.992827c-7.375604 5.965562-14.760779 11.81947-14.269497 22.216137 0.966613 20.330764 28.325255 30.737002 43.870809 36.893972 22.082151 8.750555 45.366985 14.661885 68.096734 21.479215 21.59725 6.482365 43.762344 15.118075 66.648411 14.486427 9.902195-0.274352 15.679539-9.206745 13.864349-18.41668a2961.407216 2961.407216 0 0 0-7.796703-38.383768c-1.381331-6.539788-8.268844-10.993223-14.642743-11.028315-23.702742-0.130796-47.019477-3.563387-69.717326-10.438139-20.493461-6.208013-41.191091-19.689546-63.254101-13.398589-7.350083 2.095922-14.052568 11.229294-10.849667 19.073849 8.441111 20.681679 27.818023 23.530475 47.667076 26.519636 21.871602 3.289035 43.740013 6.523837 65.659467 9.493857 8.147618 1.106979 16.323948-2.405366 18.515574-11.028315 1.901324-7.468118-2.867936-17.166145-11.028315-18.515574a3620.703936 3620.703936 0 0 0-52.98185-8.354977c-8.323076-1.253725-16.665293-2.418126-24.975608-3.757985-3.40069-0.548704-6.980027-1.008084-10.221209-2.217148-1.729056-0.644408-3.904732-3.228422-2.708429-0.360486l-10.849668 19.073849c7.908358-2.322422 16.320758 1.923655 23.616609 4.791591 10.546604 4.140802 21.227193 7.790323 32.204466 10.623167 22.563862 5.815626 45.995442 8.552766 69.283466 8.501724l-14.639553-11.025125a2890.822172 2890.822172 0 0 0 8.65485 38.150887l13.86435-18.413489c-17.28737 1.084648-34.016466-4.667175-50.550963-9.008957-18.700602-4.909626-37.442676-9.701217-56.111377-14.760779-16.008124-4.33221-34.973508-8.616569-48.372097-18.990905-1.173972-0.906-3.815408-3.793077-3.809028-4.11209 0.031901-3.097626 7.378794-9.254597 9.222696-11.293097 6.616351-7.302231 13.494293-14.342871 20.499841-21.275045 4.207795-4.172703-1.512126-12.262899-6.542977-8.517675" fill="#7DBB5C" p-id="3355"></path><path d="M266.076895 423.647502c66.935523-42.116232 149.285804-39.257866 223.488467-21.332468 79.485535 19.204644 186.501981 51.85254 239.949591 116.733613 12.750991 15.481751 23.779306 32.242748 32.379924 50.656237 13.245462 28.379488 19.721447 59.004834 21.003883 90.207597 0.315824 7.790323 0.306253 15.599786-0.01276 23.42201-1.266486 33.321015-7.95302 66.801537-18.107236 98.457299-8.948343 27.853115-21.038975 55.227708-36.074107 80.700978a367.778512 367.778512 0 0 1-13.621899 21.421792c-19.128081 27.840354-42.033288 52.723448-68.406177 72.594832a256.819053 256.819053 0 0 1-17.178906 11.896033c-17.383074 11.034695-36.093247 19.928806-56.047574 26.191052-50.161766 15.743342-102.57896 13.593188-153.669057 0.727352a413.091264 413.091264 0 0 1-24.624693-7.034259c-40.237239-12.846695-79.262225-31.735515-115.243817-53.087125-18.974954-11.238864-37.688317-23.364587-55.141575-36.897162a349.607473 349.607473 0 0 1-17.013018-14.033427c-14.425814-12.73185-27.639375-26.675953-38.967564-42.259788-15.169117-20.860327-26.242094-43.870809-33.566656-68.122256a237.866429 237.866429 0 0 1-3.770745-13.790976c-13.564476-56.120948-8.278414-117.674704 11.302667-173.690377a300.578207 300.578207 0 0 1 4.354541-11.82585 339.434115 339.434115 0 0 1 16.623821-36.16343c19.396053-36.399501 44.920365-70.065051 76.6495-96.19549a251.963659 251.963659 0 0 1 12.96154-9.975569 234.121205 234.121205 0 0 1 12.73185-8.600618" fill="#FFCD33" p-id="3356"></path><path d="M729.514953 519.048647a1635.208482 1635.208482 0 0 0-186.393516-2.242669c-4.596992 0.191408-9.197174 0.417908-13.778216 0.653979a1635.425411 1635.425411 0 0 0-199.846337 22.9722 1737.117513 1737.117513 0 0 0-39.889514 7.541492 1384.457076 1384.457076 0 0 0-17.003448 3.528295c-33.340156 7.075731-66.476143 15.264821-99.101707 24.972418-10.377526 3.091246-20.627447 6.380281-30.740192 9.921336a302.47315 302.47315 0 0 1 4.354541-11.82585 903.001106 903.001106 0 0 1 39.940557-12.428786 1455.131443 1455.131443 0 0 1 82.659724-21.204863c5.573175-1.260105 11.175061-2.488309 16.776948-3.690992 72.875564-15.609356 146.982523-25.91989 221.111812-31.502635a1711.733566 1711.733566 0 0 1 18.885631-1.314338c4.498098-0.287113 8.986625-0.555084 13.478343-0.784775a1639.285481 1639.285481 0 0 1 175.649123-0.322204 295.438891 295.438891 0 0 1 13.896251 15.727392M782.886 683.334491c-11.809899-0.532753-23.64532-0.925141-35.47117-1.202683a1799.408192 1799.408192 0 0 0-180.829911 4.925576 1809.36781 1809.36781 0 0 0-249.280751 36.84612 1822.070948 1822.070948 0 0 0-115.731909 29.387573 1765.972331 1765.972331 0 0 0-66.345347 20.595545 237.761155 237.761155 0 0 1-3.770746-13.787786 1762.326001 1762.326001 0 0 1 82.745858-27.049199 1724.041128 1724.041128 0 0 1 98.69656-26.420742c6.182492-1.473845 12.368174-2.909408 18.553856-4.290739a1769.385781 1769.385781 0 0 1 230.573768-36.102817c5.439189-0.488091 10.865618-0.960232 16.311188-1.394092 1.37495-0.118035 2.759471-0.22331 4.150372-0.331774 66.584608-5.203119 133.564793-6.83009 200.404612-4.593802a283.81721 283.81721 0 0 1-0.00638 23.41882M728.707848 862.492768a367.778512 367.778512 0 0 1-13.621899 21.421792 2232.555867 2232.555867 0 0 0-20.014941-1.103788c-22.027919-1.14526-44.078168-2.079971-66.137988-2.772232-6.472795-0.22331-12.96154-0.417908-19.456665-0.580606-75.928529-2.000218-151.92086-1.158021-227.744114 3.553817a1625.478554 1625.478554 0 0 0-20.786954 1.37176c-45.510541 3.228422-90.957279 7.716949-136.174328 13.912202a348.082586 348.082586 0 0 1-17.013018-14.033427c4.124851-0.644408 8.262463-1.279246 12.403265-1.920465a2011.712027 2011.712027 0 0 1 135.437406-16.068736c6.846041-0.596556 13.701652-1.14207 20.550883-1.655683 56.825969-4.32264 113.843346-6.444083 170.863913-6.766288a2714.015028 2714.015028 0 0 1 57.661786 0.293493c6.402612 0.086134 12.808413 0.197789 19.220595 0.328585 34.963937 0.768824 69.902354 2.131014 104.812059 4.019576" fill="#F3973B" p-id="3357"></path><path d="M419.784234 995.320639a413.091264 413.091264 0 0 1-24.624693-7.034259 1657.778724 1657.778724 0 0 1-22.149144-64.855552 2160.97869 2160.97869 0 0 1-12.06192-39.037747 3161.569377 3161.569377 0 0 1-5.346675-18.116806c-13.727174-47.198125-26.14958-94.740786-38.294444-142.372771-1.480225-5.758203-2.931739-11.516406-4.405584-17.271419-9.069569-35.732761-18.072145-71.471903-27.428826-107.12491a3947.680553 3947.680553 0 0 0-12.869026-48.002041 1144.775457 1144.775457 0 0 0-2.893457-10.565745c-9.139752-33.097705-18.796306-66.051854-29.320579-98.722081a251.963659 251.963659 0 0 1 12.96154-9.975568 2306.391664 2306.391664 0 0 1 5.968752 17.679757c9.640604 28.931382 18.627229 58.066933 27.170425 87.32371 1.046366 3.585718 2.073591 7.165055 3.116767 10.728442 14.757589 51.227273 28.280594 102.821411 41.85464 154.364507 1.547218 5.853907 3.081676 11.701435 4.619323 17.548962a9180.429362 9180.429362 0 0 0 14.132322 53.020131c8.268844 30.657248 16.847131 61.263454 25.94222 91.713343a2965.937215 2965.937215 0 0 0 5.579556 18.397539c11.624871 37.799972 24.149362 75.303261 38.048803 112.302508M646.682961 956.509392a258.139771 258.139771 0 0 1-17.185286 11.896033c-6.657823-29.642783-13.350737-59.288757-20.01813-88.94111-1.607831-7.107633-3.215661-14.205695-4.797971-21.313328-12.840315-57.001426-25.616826-114.018804-38.096655-171.096793-1.540838-6.954506-3.052964-13.889871-4.55233-20.815665-0.622077-2.820084-1.231394-5.633788-1.847092-8.453872-10.166977-46.780217-20.630637-93.528533-30.845466-140.32151-0.985753-4.354541-1.917274-8.702703-2.855175-13.028533a6595.643726 6595.643726 0 0 1-19.77568-93.420068l10.875188 0.500853c7.656337 30.679579 15.01599 61.39744 22.382024 92.134441 0.622077 2.580823 1.228204 5.164837 1.853472 7.74885 0.437049 1.796049 0.861338 3.611239 1.295197 5.410478a50609.246634 50609.246634 0 0 1 35.225529 148.03527c1.678014 7.008738 3.324126 14.007906 4.976619 20.997503a72345.937316 72345.937316 0 0 1 35.519021 151.00848c1.697155 7.209717 3.368788 14.422624 5.065943 21.629151 1.674824 7.181006 3.352837 14.384342 5.030851 21.562158 5.933661 25.492411 11.864132 50.984822 17.749941 76.467662" fill="#F3973B" p-id="3358"></path></svg>